<svg xmlns="http://www.w3.org/2000/svg" width="24" height="24" fill="none" viewBox="0 0 24 24">
  <style>
    path { fill: #000 }
    @media (prefers-color-scheme: dark) {
      path { fill: #fff }
    }
  </style>
  <path fill-rule="evenodd" d="M22 9V7h-1V5h-1V4h-1V3h-2V2h-2V1H9v1H7v1H5v1H4v1H3v2H2v2H1v7h1v1h1v2h1v1h1v1h2v1h2v1h6v-1h2v-1h2v-1h1v-1h1v-2h1v-2h1V9h-1Zm-1 1v4h-3v-4h3Zm-5-6h1v1h2v2h1v1h-3V5h-1V4Zm-2 14v2h-1v1h-2v-1h-1v-2H9v-2h6v2h-1Zm2-8v4H8v-4h8ZM9 6h1V4h1V3h2v1h1v2h1v2H9V6ZM4 7h1V5h2V4h1v1H7v3H4V7Zm-1 7v-4h3v4H3Zm2 5v-2H4v-1h3v3h1v1H7v-1H5Zm14-2v2h-2v1h-1v-1h1v-3h3v1h-1Z"/>
</svg>