<svg width="107" height="24" viewBox="0 0 107 24" fill="#000" xmlns="http://www.w3.org/2000/svg">
  <g id="logo">
    <!-- Loop between 3 icons every 400ms (1.2s in total) -->
    <path
      d="M9 2H5V4H3V6H1V12H3V14H5V16H7V18H9V20H11V22H13V20H15V18H17V16H19V14H21V12H23V6H21V4H19V2H15V4H13V6H11V4H9V2ZM9 4V6H11V8H13V6H15V4H19V6H21V12H19V14H17V16H15V18H13V20H11V18H9V16H7V14H5V12H3V6H5V4H9Z"
    >
      <animate
        attributeName="opacity"
        values="1;0;0;1"
        dur="1.2s"
        keyTimes="0;0.33;0.67;1"
        calcMode="discrete"
        repeatCount="indefinite"
      />
    </path>
    <path
      d="M5 3H19V5H5V3ZM5 19H3V5H5V19ZM19 19V21H5V19H19ZM19 19H21V5H19V19ZM10 8H8V10H10V8ZM14 8H16V10H14V8ZM9 14V12H7V14H9ZM15 14V16H9V14H15ZM15 14H17V12H15V14Z"
    >
      <animate
        attributeName="opacity"
        values="0;1;0;0"
        dur="1.2s"
        keyTimes="0;0.33;0.67;1"
        calcMode="discrete"
        repeatCount="indefinite"
      />
    </path>
    <path
      d="M12 1H14V9H22V13H20V11H12V5H10V3H12V1ZM8 7V5H10V7H8ZM6 9V7H8V9H6ZM4 11V9H6V11H4ZM14 19V21H12V23H10V15H2V11H4V13H12V19H14ZM16 17V19H14V17H16ZM18 15V17H16V15H18ZM18 15H20V13H18V15Z"
    >
      <animate
        attributeName="opacity"
        values="0;0;1;0"
        dur="1.2s"
        keyTimes="0;0.33;0.67;1"
        calcMode="discrete"
        repeatCount="indefinite"
      />
    </path>
  </g>
  <path
    id="wordmark"
    d="M33.1985 17.5V6.59091H39.9634V8.00781H34.8445V11.3317H39.4787V12.7433H34.8445V17.5H33.1985ZM41.7572 17.5V9.31818H43.2966V10.6179H43.3818C43.531 10.1776 43.7938 9.83132 44.1702 9.57919C44.5502 9.32351 44.9798 9.19567 45.4593 9.19567C45.5587 9.19567 45.6759 9.19922 45.8108 9.20632C45.9493 9.21342 46.0576 9.2223 46.1357 9.23295V10.7564C46.0718 10.7386 45.9582 10.7191 45.7948 10.6978C45.6315 10.6729 45.4681 10.6605 45.3048 10.6605C44.9284 10.6605 44.5928 10.7404 44.298 10.9002C44.0068 11.0565 43.776 11.2749 43.6056 11.5554C43.4351 11.8324 43.3499 12.1484 43.3499 12.5036V17.5H41.7572ZM47.514 17.5V9.31818H49.1067V17.5H47.514ZM48.3184 8.05575C48.0414 8.05575 47.8034 7.96342 47.6046 7.77876C47.4093 7.59055 47.3116 7.36683 47.3116 7.1076C47.3116 6.84482 47.4093 6.62109 47.6046 6.43643C47.8034 6.24822 48.0414 6.15412 48.3184 6.15412C48.5953 6.15412 48.8315 6.24822 49.0268 6.43643C49.2257 6.62109 49.3251 6.84482 49.3251 7.1076C49.3251 7.36683 49.2257 7.59055 49.0268 7.77876C48.8315 7.96342 48.5953 8.05575 48.3184 8.05575ZM51.2494 17.5V9.31818H52.7781V10.6499H52.8794C53.0498 10.1989 53.3286 9.8473 53.7156 9.59517C54.1027 9.33949 54.5661 9.21165 55.1059 9.21165C55.6528 9.21165 56.1109 9.33949 56.4802 9.59517C56.8531 9.85085 57.1283 10.2024 57.3058 10.6499H57.3911C57.5864 10.2131 57.8971 9.86506 58.3232 9.60582C58.7494 9.34304 59.2572 9.21165 59.8467 9.21165C60.5889 9.21165 61.1943 9.44425 61.6631 9.90945C62.1354 10.3746 62.3715 11.076 62.3715 12.0135V17.5H60.7789V12.1626C60.7789 11.6087 60.6279 11.2074 60.3261 10.9588C60.0242 10.7102 59.6638 10.5859 59.2448 10.5859C58.7263 10.5859 58.3232 10.7457 58.0356 11.0653C57.748 11.3814 57.6041 11.788 57.6041 12.2852V17.5H56.0168V12.0614C56.0168 11.6175 55.8783 11.2607 55.6013 10.9908C55.3243 10.7209 54.9639 10.5859 54.52 10.5859C54.2181 10.5859 53.9394 10.6658 53.6837 10.8256C53.4316 10.9819 53.2274 11.2003 53.0711 11.4808C52.9184 11.7614 52.8421 12.0863 52.8421 12.4556V17.5H51.2494ZM67.9526 17.6651C67.1855 17.6651 66.5162 17.4893 65.9444 17.1378C65.3727 16.7862 64.9288 16.2944 64.6127 15.6623C64.2967 15.0302 64.1387 14.2915 64.1387 13.4464C64.1387 12.5977 64.2967 11.8555 64.6127 11.2198C64.9288 10.5842 65.3727 10.0906 65.9444 9.73899C66.5162 9.38743 67.1855 9.21165 67.9526 9.21165C68.7196 9.21165 69.389 9.38743 69.9608 9.73899C70.5325 10.0906 70.9764 10.5842 71.2924 11.2198C71.6085 11.8555 71.7665 12.5977 71.7665 13.4464C71.7665 14.2915 71.6085 15.0302 71.2924 15.6623C70.9764 16.2944 70.5325 16.7862 69.9608 17.1378C69.389 17.4893 68.7196 17.6651 67.9526 17.6651ZM67.9579 16.3281C68.4551 16.3281 68.867 16.1967 69.1937 15.9339C69.5204 15.6712 69.7619 15.3214 69.9181 14.8846C70.0779 14.4478 70.1578 13.9666 70.1578 13.4411C70.1578 12.919 70.0779 12.4396 69.9181 12.0028C69.7619 11.5625 69.5204 11.2092 69.1937 10.9428C68.867 10.6765 68.4551 10.5433 67.9579 10.5433C67.4572 10.5433 67.0417 10.6765 66.7115 10.9428C66.3848 11.2092 66.1415 11.5625 65.9817 12.0028C65.8255 12.4396 65.7473 12.919 65.7473 13.4411C65.7473 13.9666 65.8255 14.4478 65.9817 14.8846C66.1415 15.3214 66.3848 15.6712 66.7115 15.9339C67.0417 16.1967 67.4572 16.3281 67.9579 16.3281ZM78.7272 14.1069V9.31818H80.3252V17.5H78.7591V16.0831H78.6739C78.4857 16.5199 78.1839 16.8839 77.7684 17.1751C77.3564 17.4627 76.8433 17.6065 76.229 17.6065C75.7034 17.6065 75.2382 17.4911 74.8334 17.2603C74.4321 17.0259 74.116 16.6797 73.8852 16.2216C73.6579 15.7635 73.5443 15.1971 73.5443 14.5224V9.31818H75.137V14.3306C75.137 14.8881 75.2915 15.332 75.6004 15.6623C75.9094 15.9925 76.3106 16.1577 76.8042 16.1577C77.1025 16.1577 77.3991 16.0831 77.6938 15.9339C77.9921 15.7848 78.2389 15.5593 78.4342 15.2575C78.6331 14.9556 78.7307 14.5721 78.7272 14.1069ZM88.5962 11.3157L87.1527 11.5714C87.0923 11.3867 86.9964 11.2109 86.8651 11.044C86.7372 10.8771 86.5632 10.7404 86.343 10.6339C86.1229 10.5273 85.8477 10.4741 85.5174 10.4741C85.0664 10.4741 84.69 10.5753 84.3881 10.7777C84.0863 10.9766 83.9354 11.234 83.9354 11.5501C83.9354 11.8235 84.0366 12.0437 84.239 12.2106C84.4414 12.3775 84.7681 12.5142 85.2191 12.6207L86.5188 12.919C87.2717 13.093 87.8327 13.3612 88.2021 13.7234C88.5714 14.0856 88.756 14.5561 88.756 15.1349C88.756 15.625 88.614 16.0618 88.3299 16.4453C88.0494 16.8253 87.657 17.1236 87.1527 17.3402C86.652 17.5568 86.0714 17.6651 85.4109 17.6651C84.4947 17.6651 83.7472 17.4698 83.1683 17.0792C82.5895 16.685 82.2344 16.1257 82.103 15.4013L83.6424 15.1669C83.7383 15.5682 83.9354 15.8718 84.2337 16.0778C84.532 16.2802 84.9208 16.3814 85.4002 16.3814C85.9222 16.3814 86.3395 16.2731 86.652 16.0565C86.9645 15.8363 87.1207 15.5682 87.1207 15.2521C87.1207 14.9964 87.0249 14.7816 86.8331 14.6076C86.6449 14.4336 86.3555 14.3022 85.9648 14.2134L84.5799 13.9098C83.8164 13.7358 83.2518 13.4588 82.886 13.0788C82.5238 12.6989 82.3427 12.2177 82.3427 11.6353C82.3427 11.1523 82.4776 10.7298 82.7475 10.3675C83.0174 10.0053 83.3903 9.72301 83.8661 9.5206C84.342 9.31463 84.8871 9.21165 85.5014 9.21165C86.3857 9.21165 87.0817 9.40341 87.5895 9.78693C88.0973 10.1669 88.4329 10.6765 88.5962 11.3157ZM96.6382 11.3157L95.1947 11.5714C95.1343 11.3867 95.0384 11.2109 94.907 11.044C94.7792 10.8771 94.6052 10.7404 94.385 10.6339C94.1649 10.5273 93.8896 10.4741 93.5594 10.4741C93.1084 10.4741 92.732 10.5753 92.4301 10.7777C92.1283 10.9766 91.9774 11.234 91.9774 11.5501C91.9774 11.8235 92.0786 12.0437 92.281 12.2106C92.4834 12.3775 92.8101 12.5142 93.2611 12.6207L94.5608 12.919C95.3137 13.093 95.8747 13.3612 96.2441 13.7234C96.6134 14.0856 96.798 14.5561 96.798 15.1349C96.798 15.625 96.656 16.0618 96.3719 16.4453C96.0914 16.8253 95.699 17.1236 95.1947 17.3402C94.694 17.5568 94.1134 17.6651 93.4529 17.6651C92.5367 17.6651 91.7892 17.4698 91.2103 17.0792C90.6315 16.685 90.2764 16.1257 90.145 15.4013L91.6844 15.1669C91.7803 15.5682 91.9774 15.8718 92.2757 16.0778C92.574 16.2802 92.9628 16.3814 93.4422 16.3814C93.9642 16.3814 94.3815 16.2731 94.694 16.0565C95.0065 15.8363 95.1627 15.5682 95.1627 15.2521C95.1627 14.9964 95.0669 14.7816 94.8751 14.6076C94.6869 14.4336 94.3975 14.3022 94.0068 14.2134L92.6219 13.9098C91.8584 13.7358 91.2938 13.4588 90.928 13.0788C90.5658 12.6989 90.3847 12.2177 90.3847 11.6353C90.3847 11.1523 90.5196 10.7298 90.7895 10.3675C91.0594 10.0053 91.4323 9.72301 91.9081 9.5206C92.384 9.31463 92.9291 9.21165 93.5434 9.21165C94.4276 9.21165 95.1237 9.40341 95.6315 9.78693C96.1393 10.1669 96.4749 10.6765 96.6382 11.3157ZM102.075 17.6651C101.269 17.6651 100.575 17.4929 99.9927 17.1484C99.4139 16.8004 98.9664 16.3121 98.6504 15.6836C98.3379 15.0515 98.1816 14.3111 98.1816 13.4624C98.1816 12.6243 98.3379 11.8857 98.6504 11.2464C98.9664 10.6072 99.4068 10.1083 99.9714 9.74964C100.54 9.39098 101.204 9.21165 101.964 9.21165C102.425 9.21165 102.873 9.288 103.306 9.4407C103.739 9.59339 104.128 9.8331 104.472 10.1598C104.817 10.4865 105.089 10.9109 105.287 11.4329C105.486 11.9513 105.586 12.5817 105.586 13.3239V13.8885H99.0819V12.6953H104.025C104.025 12.2763 103.94 11.9052 103.769 11.582C103.599 11.2553 103.359 10.9979 103.05 10.8097C102.745 10.6214 102.386 10.5273 101.974 10.5273C101.527 10.5273 101.136 10.6374 100.802 10.8576C100.472 11.0742 100.216 11.3583 100.035 11.7099C99.8578 12.0579 99.769 12.4361 99.769 12.8445V13.7766C99.769 14.3235 99.8649 14.7887 100.057 15.1722C100.252 15.5558 100.524 15.8487 100.872 16.0511C101.22 16.25 101.626 16.3494 102.091 16.3494C102.393 16.3494 102.669 16.3068 102.917 16.2216C103.166 16.1328 103.381 16.0014 103.562 15.8274C103.743 15.6534 103.881 15.4386 103.977 15.1829L105.485 15.4545C105.364 15.8984 105.147 16.2873 104.835 16.6211C104.526 16.9513 104.137 17.2088 103.668 17.3935C103.203 17.5746 102.672 17.6651 102.075 17.6651Z"
  />
</svg>
