<svg xmlns="http://www.w3.org/2000/svg" width="24" height="24" fill="none" viewBox="0 0 24 24">
  <style>
    path { fill: #000 }
    @media (prefers-color-scheme: dark) {
      path { fill: #fff }
    }
  </style>
  <path d="m22,6v-1h-1v-1h-1v-1h-6v1h-1v1h-2v-1h-1v-1h-6v1h-1v1h-1v1h-1v5h1v1h1v1h1v1h1v1h1v1h1v1h1v1h1v1h1v1h1v1h2v-1h1v-1h1v-1h1v-1h1v-1h1v-1h1v-1h1v-1h1v-1h1v-1h1v-5h-1Zm-2,4v1h-1v1h-1v1h-1v1h-1v1h-1v1h-1v1h-1v1h-2v-1h-1v-1h-1v-1h-1v-1h-1v-1h-1v-1h-1v-1h-1v-1h-1v-3h1v-1h1v-1h4v1h1v1h1v1h2v-1h1v-1h1v-1h4v1h1v1h1v3h-1Z"/>
</svg>